<svg width="20" height="21" viewBox="0 0 20 21" fill="none" xmlns="http://www.w3.org/2000/svg">
<path d="M16.8756 6.55469H3.12561C2.78043 6.55469 2.50061 6.83451 2.50061 7.17969V17.1797C2.50061 17.5249 2.78043 17.8047 3.12561 17.8047H16.8756C17.2208 17.8047 17.5006 17.5249 17.5006 17.1797V7.17969C17.5006 6.83451 17.2208 6.55469 16.8756 6.55469Z" stroke="#727272" stroke-width="1.25" stroke-linecap="round" stroke-linejoin="round"/>
<path d="M13.125 6.55469V5.30469C13.125 4.97317 12.9933 4.65522 12.7589 4.4208C12.5245 4.18638 12.2065 4.05469 11.875 4.05469H8.125C7.79348 4.05469 7.47554 4.18638 7.24112 4.4208C7.0067 4.65522 6.875 4.97317 6.875 5.30469V6.55469" stroke="#727272" stroke-width="1.25" stroke-linecap="round" stroke-linejoin="round"/>
<path d="M17.5006 10.7976C15.2212 12.1164 12.6335 12.8088 10 12.8047C7.36698 12.8088 4.7797 12.1166 2.50051 10.7983" stroke="#727272" stroke-width="1.25" stroke-linecap="round" stroke-linejoin="round"/>
<path d="M9.0625 10.3047H10.9375" stroke="#727272" stroke-width="1.25" stroke-linecap="round" stroke-linejoin="round"/>
</svg>
