<svg width="20" height="21" viewBox="0 0 20 21" fill="none" xmlns="http://www.w3.org/2000/svg">
<path d="M1.25 17.8034H18.75" stroke="#727272" stroke-width="1.5" stroke-linecap="round" stroke-linejoin="round"/>
<path d="M11.2495 17.8034V4.05339C11.2495 3.88763 11.1837 3.72866 11.0665 3.61145C10.9493 3.49424 10.7903 3.42839 10.6245 3.42839H3.12454C2.95878 3.42839 2.79981 3.49424 2.6826 3.61145C2.56539 3.72866 2.49954 3.88763 2.49954 4.05339V17.8034" stroke="#727272" stroke-width="1.5" stroke-linecap="round" stroke-linejoin="round"/>
<path d="M17.4995 17.8034V9.05339C17.4995 8.88763 17.4337 8.72866 17.3165 8.61145C17.1993 8.49424 17.0403 8.42839 16.8745 8.42839H11.2495" stroke="#727272" stroke-width="1.5" stroke-linecap="round" stroke-linejoin="round"/>
<path d="M4.99954 6.55339H7.49954" stroke="#727272" stroke-width="1.5" stroke-linecap="round" stroke-linejoin="round"/>
<path d="M6.24954 11.5534H8.74954" stroke="#727272" stroke-width="1.5" stroke-linecap="round" stroke-linejoin="round"/>
<path d="M4.99954 14.6784H7.49954" stroke="#727272" stroke-width="1.5" stroke-linecap="round" stroke-linejoin="round"/>
<path d="M13.7495 14.6784H14.9995" stroke="#727272" stroke-width="1.5" stroke-linecap="round" stroke-linejoin="round"/>
<path d="M13.7495 11.5534H14.9995" stroke="#727272" stroke-width="1.5" stroke-linecap="round" stroke-linejoin="round"/>
</svg>
