<svg width="20" height="21" viewBox="0 0 20 21" fill="none" xmlns="http://www.w3.org/2000/svg">
<path d="M10 7.17969H16.875C17.0408 7.17969 17.1997 7.24554 17.3169 7.36275C17.4342 7.47996 17.5 7.63893 17.5 7.80469V16.5547C17.5 16.7204 17.4342 16.8794 17.3169 16.9966C17.1997 17.1138 17.0408 17.1797 16.875 17.1797H3.125C2.95939 17.1792 2.8007 17.1132 2.68359 16.9961C2.56649 16.879 2.50048 16.7203 2.5 16.5547V9.05469" stroke="#727272" stroke-width="1.5" stroke-linecap="round" stroke-linejoin="round"/>
<path d="M7.29167 9.05469H2.5V5.92969C2.5 5.76393 2.56585 5.60496 2.68306 5.48775C2.80027 5.37054 2.95924 5.30469 3.125 5.30469H7.29167C7.4269 5.30469 7.55848 5.34855 7.66667 5.42969L10 7.17969L7.66667 8.92969C7.55848 9.01083 7.4269 9.05469 7.29167 9.05469Z" stroke="#727272" stroke-width="1.5" stroke-linecap="round" stroke-linejoin="round"/>
</svg>
