<svg width="20" height="21" viewBox="0 0 20 21" fill="none" xmlns="http://www.w3.org/2000/svg">
<g clip-path="url(#clip0_11_617)">
<path d="M5.625 17.8047C6.66053 17.8047 7.5 16.9652 7.5 15.9297C7.5 14.8942 6.66053 14.0547 5.625 14.0547C4.58947 14.0547 3.75 14.8942 3.75 15.9297C3.75 16.9652 4.58947 17.8047 5.625 17.8047Z" stroke="#727272" stroke-width="1.25" stroke-linecap="round" stroke-linejoin="round"/>
<path d="M5.625 7.80469C6.66053 7.80469 7.5 6.96522 7.5 5.92969C7.5 4.89415 6.66053 4.05469 5.625 4.05469C4.58947 4.05469 3.75 4.89415 3.75 5.92969C3.75 6.96522 4.58947 7.80469 5.625 7.80469Z" stroke="#727272" stroke-width="1.25" stroke-linecap="round" stroke-linejoin="round"/>
<path d="M5.625 7.80469V14.0547" stroke="#727272" stroke-width="1.25" stroke-linecap="round" stroke-linejoin="round"/>
<path d="M15.625 17.8047C16.6605 17.8047 17.5 16.9652 17.5 15.9297C17.5 14.8942 16.6605 14.0547 15.625 14.0547C14.5895 14.0547 13.75 14.8942 13.75 15.9297C13.75 16.9652 14.5895 17.8047 15.625 17.8047Z" stroke="#727272" stroke-width="1.25" stroke-linecap="round" stroke-linejoin="round"/>
<path d="M15.625 14.0547V9.57266C15.625 9.4084 15.5927 9.24575 15.5298 9.094C15.4669 8.94226 15.3748 8.80439 15.2586 8.68828L11.25 4.67969" stroke="#727272" stroke-width="1.25" stroke-linecap="round" stroke-linejoin="round"/>
<path d="M11.25 8.42969V4.67969H15" stroke="#727272" stroke-width="1.25" stroke-linecap="round" stroke-linejoin="round"/>
</g>
<defs>
<clipPath id="clip0_11_617">
<rect width="20" height="20" fill="white" transform="translate(0 0.929688)"/>
</clipPath>
</defs>
</svg>
