<svg width="20" height="21" viewBox="0 0 20 21" fill="none" xmlns="http://www.w3.org/2000/svg">
<path d="M18.8061 10.4441L16.875 11.4097L14.375 6.62202L16.3257 5.64666C16.4723 5.57338 16.6418 5.56058 16.7977 5.61103C16.9536 5.66148 17.0834 5.77113 17.1593 5.91638L19.0806 9.59583C19.119 9.66941 19.1424 9.7499 19.1493 9.8326C19.1563 9.91531 19.1468 9.99858 19.1212 10.0775C19.0956 10.1565 19.0546 10.2296 19.0005 10.2925C18.9464 10.3555 18.8803 10.407 18.8061 10.4441V10.4441Z" stroke="#727272" stroke-width="1.5" stroke-linecap="round" stroke-linejoin="round"/>
<path d="M3.125 11.3259L1.19393 10.3604C1.1197 10.3233 1.05359 10.2718 0.999488 10.2088C0.945382 10.1459 0.904354 10.0728 0.8788 9.99381C0.853246 9.91484 0.843678 9.83157 0.850653 9.74887C0.857628 9.66616 0.881007 9.58567 0.919426 9.5121L2.84075 5.83264C2.91659 5.6874 3.04644 5.57774 3.20234 5.52729C3.35824 5.47684 3.52771 5.48964 3.67427 5.56292L5.625 6.53828L3.125 11.3259Z" stroke="#727272" stroke-width="1.5" stroke-linecap="round" stroke-linejoin="round"/>
<path d="M16.875 11.4097L15.625 12.872L12.7502 15.7468C12.6739 15.8231 12.5791 15.8784 12.4751 15.9072C12.3711 15.936 12.2614 15.9374 12.1567 15.9112L7.62881 14.7792C7.54389 14.758 7.46437 14.7192 7.3954 14.6652L3.125 11.3259" stroke="#727272" stroke-width="1.5" stroke-linecap="round" stroke-linejoin="round"/>
<path d="M15.625 12.872L12.1875 10.372L11.1875 11.122C10.7548 11.4466 10.2284 11.622 9.6875 11.622C9.14657 11.622 8.62024 11.4466 8.1875 11.122L7.764 10.8044C7.69237 10.7507 7.63311 10.6822 7.59025 10.6035C7.54739 10.5249 7.52192 10.438 7.51558 10.3487C7.50923 10.2594 7.52215 10.1697 7.55346 10.0858C7.58477 10.0019 7.63374 9.92576 7.69706 9.86245L10.7544 6.80507C10.8125 6.74703 10.8814 6.70099 10.9572 6.66958C11.033 6.63818 11.1143 6.62201 11.1964 6.62201H14.375" stroke="#727272" stroke-width="1.5" stroke-linecap="round" stroke-linejoin="round"/>
<path d="M5.66987 6.53828L9.67925 5.36942C9.82247 5.32766 9.97591 5.33852 10.1118 5.40002L12.8125 6.62202" stroke="#727272" stroke-width="1.5" stroke-linecap="round" stroke-linejoin="round"/>
<path d="M8.75 17.5595L6.39536 16.9709C6.29981 16.947 6.21125 16.9008 6.13692 16.8362L4.375 15.3047" stroke="#727272" stroke-width="1.5" stroke-linecap="round" stroke-linejoin="round"/>
</svg>
