<svg width="20" height="21" viewBox="0 0 20 21" fill="none" xmlns="http://www.w3.org/2000/svg">
<path d="M8.12519 4.6797H4.37519C4.03001 4.6797 3.75019 4.95952 3.75019 5.3047V9.0547C3.75019 9.39988 4.03001 9.6797 4.37519 9.6797H8.12519C8.47037 9.6797 8.75019 9.39988 8.75019 9.0547V5.3047C8.75019 4.95952 8.47037 4.6797 8.12519 4.6797Z" stroke="#727272" stroke-width="1.5" stroke-linecap="round" stroke-linejoin="round"/>
<path d="M8.12519 12.1797H4.37519C4.03001 12.1797 3.75019 12.4595 3.75019 12.8047V16.5547C3.75019 16.8999 4.03001 17.1797 4.37519 17.1797H8.12519C8.47037 17.1797 8.75019 16.8999 8.75019 16.5547V12.8047C8.75019 12.4595 8.47037 12.1797 8.12519 12.1797Z" stroke="#727272" stroke-width="1.5" stroke-linecap="round" stroke-linejoin="round"/>
<path d="M15.6252 4.6797H11.8752C11.53 4.6797 11.2502 4.95952 11.2502 5.3047V9.0547C11.2502 9.39988 11.53 9.6797 11.8752 9.6797H15.6252C15.9704 9.6797 16.2502 9.39988 16.2502 9.0547V5.3047C16.2502 4.95952 15.9704 4.6797 15.6252 4.6797Z" stroke="#727272" stroke-width="1.5" stroke-linecap="round" stroke-linejoin="round"/>
<path d="M11.2502 12.1797V14.6797" stroke="#727272" stroke-width="1.5" stroke-linecap="round" stroke-linejoin="round"/>
<path d="M11.2502 17.1797H13.7502V12.1797" stroke="#727272" stroke-width="1.5" stroke-linecap="round" stroke-linejoin="round"/>
<path d="M13.7502 13.4297H16.2502" stroke="#727272" stroke-width="1.5" stroke-linecap="round" stroke-linejoin="round"/>
<path d="M16.2502 15.9297V17.1797" stroke="#727272" stroke-width="1.5" stroke-linecap="round" stroke-linejoin="round"/>
</svg>
