<svg width="20" height="21" viewBox="0 0 20 21" fill="none" xmlns="http://www.w3.org/2000/svg">
<path d="M14.4524 3.82557L11.1742 7.10384L11.6161 9.31355L13.8258 9.75549L17.1041 6.47722L17.1044 6.47709C17.5102 7.43492 17.6072 8.49544 17.382 9.51101C17.1569 10.5266 16.6206 11.4467 15.848 12.1432C15.0754 12.8398 14.1049 13.2781 13.0715 13.3973C12.0381 13.5164 10.9933 13.3103 10.0825 12.8078L10.0826 12.8077L5.70083 17.8805C5.34913 18.2318 4.87232 18.4291 4.37522 18.4289C3.87813 18.4288 3.40143 18.2312 3.04993 17.8797C2.69843 17.5282 2.5009 17.0515 2.50076 16.5544C2.50061 16.0574 2.69788 15.5805 3.04918 15.2288L8.12194 10.8472L8.12183 10.8472C7.61933 9.9364 7.4133 8.89158 7.53242 7.85818C7.65154 6.82478 8.08988 5.85423 8.78643 5.08163C9.48298 4.30903 10.4031 3.77281 11.4187 3.54762C12.4342 3.32244 13.4947 3.41948 14.4526 3.82525L14.4524 3.82557Z" stroke="#727272" stroke-width="1.5" stroke-linecap="round" stroke-linejoin="round"/>
</svg>
